<svg width="325" height="114" viewBox="0 0 325 114" fill="none" xmlns="http://www.w3.org/2000/svg">
<path d="M275.662 17.6075C279.866 17.6077 283.274 21.0158 283.274 25.2198C283.274 25.3617 283.27 25.5027 283.262 25.6427C294.65 29.4911 302.848 40.2628 302.848 52.9493C302.848 65.6359 294.65 76.4074 283.262 80.256C283.27 80.3964 283.274 80.5384 283.274 80.6808C283.274 84.8846 279.865 88.292 275.662 88.2921H164.739V88.2931L162.021 88.2921L159.303 88.2931V88.2921H48.3804C44.1765 88.292 40.7683 84.8846 40.7681 80.6808C40.7681 80.5384 40.7721 80.3964 40.7798 80.256C29.3923 76.4074 21.1938 65.6359 21.1938 52.9493C21.194 40.2628 29.3922 29.4911 40.7798 25.6427C40.7721 25.5027 40.7681 25.3617 40.7681 25.2198C40.7681 21.0158 44.1764 17.6076 48.3804 17.6075H275.662Z" fill="#ECE6D2"/>
<g filter="url(#filter0_d_3067_3835)">
<rect x="54.9054" y="24.1323" width="214.23" height="56.5481" fill="#FBF5E5"/>
<rect x="55.9054" y="25.1323" width="212.23" height="54.5481" stroke="#FDFAEB" stroke-width="2"/>
</g>
<path d="M87.6467 48.892L89.798 52.369L93.275 54.5203L89.798 56.9518L87.6467 60.1486L85.2153 56.9518L82.0184 54.5203L85.2153 52.369L87.6467 48.892Z" fill="#46495D"/>
<path d="M109.295 45.0403H109.375C109.482 45.0536 109.542 45.127 109.555 45.2603L110.275 49.9603C110.275 50.1336 110.202 50.2203 110.055 50.2203H109.115C108.928 50.2336 108.802 50.1603 108.735 50.0003C107.802 48.4536 106.535 47.6203 104.935 47.5003C103.682 47.5003 103.055 48.0736 103.055 49.2203C103.055 50.1936 104.302 51.2003 106.795 52.2403C109.448 53.3203 110.835 54.9336 110.955 57.0803C111.048 59.987 109.148 61.4736 105.255 61.5403C102.828 61.567 100.968 60.5136 99.675 58.3803C99.6217 58.247 99.6217 58.1336 99.675 58.0403L100.395 57.2603C100.568 57.207 100.708 57.2536 100.815 57.4003C102.055 58.8536 103.508 59.607 105.175 59.6603C106.935 59.6603 107.815 59.0536 107.815 57.8403C107.748 57.1336 106.482 56.1203 104.015 54.8003C101.962 53.5336 100.675 52.267 100.155 51.0003C99.9284 50.4536 99.8684 49.747 99.975 48.8803C100.575 46.6536 102.348 45.5603 105.295 45.6003C106.442 45.6536 107.442 45.907 108.295 46.3603C108.762 46.1736 109.095 45.7336 109.295 45.0403ZM117.355 51.8203C116.888 51.8203 116.475 52.067 116.115 52.5603C115.755 53.0403 115.575 53.8603 115.575 55.0203H119.555C119.595 54.007 119.402 53.2203 118.975 52.6603C118.548 52.087 118.008 51.807 117.355 51.8203ZM117.375 50.3203C119.975 50.3203 121.708 51.527 122.575 53.9403C122.828 54.727 122.908 55.5603 122.815 56.4403C122.828 56.7336 122.708 56.8803 122.455 56.8803L115.635 56.9203C115.542 56.8936 115.508 56.947 115.535 57.0803C115.548 58.5203 116.275 59.387 117.715 59.6803C119.155 59.9736 120.508 59.667 121.775 58.7603C121.815 58.7203 121.862 58.7136 121.915 58.7403C122.075 58.8603 122.255 59.0403 122.455 59.2803C122.535 59.3603 122.548 59.4336 122.495 59.5003C121.108 61.0603 119.408 61.787 117.395 61.6803C114.902 61.587 113.208 60.3536 112.315 57.9803C112.195 57.4336 112.135 56.9403 112.135 56.5003V55.7203C112.562 52.1603 114.308 50.3603 117.375 50.3203ZM129.538 51.8203C129.072 51.8203 128.658 52.067 128.298 52.5603C127.938 53.0403 127.758 53.8603 127.758 55.0203H131.738C131.778 54.007 131.585 53.2203 131.158 52.6603C130.732 52.087 130.192 51.807 129.538 51.8203ZM129.558 50.3203C132.158 50.3203 133.892 51.527 134.758 53.9403C135.012 54.727 135.092 55.5603 134.998 56.4403C135.012 56.7336 134.892 56.8803 134.638 56.8803L127.818 56.9203C127.725 56.8936 127.692 56.947 127.718 57.0803C127.732 58.5203 128.458 59.387 129.898 59.6803C131.338 59.9736 132.692 59.667 133.958 58.7603C133.998 58.7203 134.045 58.7136 134.098 58.7403C134.258 58.8603 134.438 59.0403 134.638 59.2803C134.718 59.3603 134.732 59.4336 134.678 59.5003C133.292 61.0603 131.592 61.787 129.578 61.6803C127.085 61.587 125.392 60.3536 124.498 57.9803C124.378 57.4336 124.318 56.9403 124.318 56.5003V55.7203C124.745 52.1603 126.492 50.3603 129.558 50.3203ZM147.116 50.3403H147.256C148.482 50.3536 149.362 50.827 149.896 51.7603C150.669 50.827 151.729 50.367 153.076 50.3803H153.236C155.009 50.3803 156.196 51.0803 156.796 52.4803C156.902 52.8803 156.949 53.2136 156.936 53.4803L156.916 59.9403C156.849 60.9003 156.142 61.447 154.796 61.5803C154.476 61.5936 154.169 61.5936 153.876 61.5803C153.769 61.5536 153.722 61.4736 153.736 61.3403L153.756 54.0203C153.769 52.8203 153.262 52.1936 152.236 52.1403C151.542 52.1936 150.996 52.587 150.596 53.3203L150.576 60.5603C150.616 61.187 150.376 61.5203 149.856 61.5603H147.676C147.569 61.547 147.522 61.4603 147.536 61.3003L147.556 54.0803C147.569 52.827 147.082 52.187 146.096 52.1603C145.349 52.187 144.776 52.4803 144.376 53.0403L144.356 60.4403C144.409 61.1736 144.136 61.5403 143.536 61.5403C142.149 61.5403 141.409 61.5403 141.316 61.5403C141.182 61.5136 141.102 61.4203 141.076 61.2603L141.116 53.4203C141.116 52.7136 140.676 52.1136 139.796 51.6203C139.782 51.3936 139.929 51.2536 140.236 51.2003C141.742 50.867 142.976 50.6136 143.936 50.4403C144.109 50.4403 144.182 50.5403 144.156 50.7403V51.5603C144.849 50.747 145.836 50.3403 147.116 50.3403ZM157.549 50.3603H162.509C162.763 50.3603 162.929 50.467 163.009 50.6803V50.7403C162.409 51.0336 162.116 51.4003 162.129 51.8403V52.0003C162.129 52.147 162.756 53.6736 164.009 56.5803H164.089C165.356 54.0336 166.056 52.4536 166.189 51.8403C166.123 51.2403 165.829 50.927 165.309 50.9003V50.6803C165.323 50.5203 165.423 50.4136 165.609 50.3603H169.529C169.676 50.427 169.769 50.5336 169.809 50.6803V50.8203C169.129 50.8603 168.576 51.2403 168.149 51.9603L163.509 63.5003C162.976 64.9536 162.109 65.8536 160.909 66.2003C159.709 66.547 158.676 66.6403 157.809 66.4803C157.596 66.427 157.469 66.287 157.429 66.0603C158.349 65.927 159.096 65.587 159.669 65.0403C160.243 64.4936 161.063 62.9403 162.129 60.3803C159.796 54.5536 158.469 51.5536 158.149 51.3803C157.816 51.007 157.443 50.7936 157.029 50.7403V50.6803C157.069 50.4536 157.243 50.347 157.549 50.3603ZM173.849 50.5003H179.029C179.389 50.5003 179.569 50.6603 179.569 50.9803C178.876 51.1003 178.509 51.467 178.469 52.0803L178.529 52.6403L179.689 57.0003H179.789H179.689L182.569 51.0403H183.489C183.716 51.0136 183.889 51.127 184.009 51.3803L186.249 56.7403H186.309L187.749 52.1803V52.0203C187.789 51.5536 187.489 51.1803 186.849 50.9003V50.8203C186.929 50.607 187.103 50.5003 187.369 50.5003H190.849C191.209 50.5003 191.389 50.6603 191.389 50.9803C190.643 51.1403 190.123 51.5136 189.829 52.1003L186.669 61.0403C186.629 61.2403 186.476 61.347 186.209 61.3603H185.289C185.023 61.3603 184.863 61.2403 184.809 61.0003L182.549 55.3203H182.469L179.689 61.2003C179.543 61.307 179.403 61.3603 179.269 61.3603H178.589C178.243 61.387 178.023 61.2736 177.929 61.0203L175.109 52.5603C174.656 51.5603 174.083 51.0536 173.389 51.0403L173.329 50.9003V50.8203C173.409 50.607 173.583 50.5003 173.849 50.5003ZM190.741 55.9403C190.741 55.087 190.867 54.307 191.121 53.6003C191.387 52.8936 191.767 52.287 192.261 51.7803C192.767 51.2736 193.381 50.8803 194.101 50.6003C194.821 50.307 195.641 50.1603 196.561 50.1603C197.481 50.1603 198.301 50.307 199.021 50.6003C199.741 50.8803 200.347 51.2736 200.841 51.7803C201.347 52.287 201.727 52.8936 201.981 53.6003C202.247 54.307 202.381 55.087 202.381 55.9403C202.381 56.7936 202.247 57.5736 201.981 58.2803C201.727 58.987 201.347 59.5936 200.841 60.1003C200.347 60.607 199.741 61.0003 199.021 61.2803C198.301 61.5736 197.481 61.7203 196.561 61.7203C195.641 61.7203 194.821 61.5736 194.101 61.2803C193.381 61.0003 192.767 60.607 192.261 60.1003C191.767 59.5936 191.387 58.987 191.121 58.2803C190.867 57.5736 190.741 56.7936 190.741 55.9403ZM194.141 55.9403C194.141 57.207 194.354 58.2003 194.781 58.9203C195.207 59.627 195.801 59.9803 196.561 59.9803C197.321 59.9803 197.914 59.627 198.341 58.9203C198.767 58.2003 198.981 57.207 198.981 55.9403C198.981 54.6736 198.767 53.687 198.341 52.9803C197.914 52.2603 197.321 51.9003 196.561 51.9003C195.801 51.9003 195.207 52.2603 194.781 52.9803C194.354 53.687 194.141 54.6736 194.141 55.9403ZM210.16 50.4203C211.76 50.3936 212.633 51.487 212.78 53.7003V54.0003C212.78 54.147 212.706 54.2336 212.56 54.2603H210.7C210.593 54.247 210.54 54.1603 210.54 54.0003C210.446 53.267 210.22 52.8403 209.86 52.7203L209.62 52.7003C209.046 52.7003 208.38 53.267 207.62 54.4003C207.526 54.5736 207.48 54.727 207.48 54.8603V58.1003C207.48 59.9536 206.72 61.1003 205.2 61.5403C205.106 61.5803 204.86 61.607 204.46 61.6203C204.366 61.5936 204.313 61.527 204.3 61.4203V53.8203C204.3 52.9403 203.886 52.247 203.06 51.7403C203.073 51.5003 203.186 51.3603 203.4 51.3203C205.533 50.8136 206.773 50.5403 207.12 50.5003C207.24 50.5003 207.286 50.5736 207.26 50.7203V53.1003H207.32C208.106 51.3003 209.053 50.407 210.16 50.4203ZM216.979 45.1203C217.086 45.147 217.132 45.2203 217.119 45.3403V55.3803L219.859 52.3603C220.059 51.7203 219.739 51.2603 218.899 50.9803V50.9003C218.939 50.7403 219.039 50.6403 219.199 50.6003H224.139C224.299 50.627 224.399 50.727 224.439 50.9003V50.9803C224.052 51.0736 223.659 51.3003 223.259 51.6603L220.399 54.6603V54.7603C222.426 58.1736 223.652 60.047 224.079 60.3803C224.426 60.687 224.839 60.9203 225.319 61.0803V61.2403C225.319 61.307 225.246 61.3803 225.099 61.4603H223.479C221.679 61.4603 220.386 60.6336 219.599 58.9803C218.906 57.807 218.479 57.067 218.319 56.7603C218.252 56.7603 217.852 57.1736 217.119 58.0003V58.3803C217.119 60.1003 216.139 61.1003 214.179 61.3803C214.032 61.407 213.959 61.3336 213.959 61.1603V48.1203C213.959 47.387 213.539 46.7936 212.699 46.3403C212.686 46.1003 212.819 45.947 213.099 45.8803L216.979 45.1203Z" fill="#46495D"/>
<path d="M236.903 48.892L239.055 52.369L242.532 54.5203L239.055 56.9518L236.903 60.1486L234.472 56.9518L231.275 54.5203L234.472 52.369L236.903 48.892Z" fill="#46495D"/>
<g filter="url(#filter1_d_3067_3835)">
<mask id="path-7-inside-1_3067_3835" fill="white">
<path d="M63.0911 60.6364C65.7258 59.8911 68.6753 60.5542 70.7491 62.6279C72.8224 64.7015 73.4843 67.6501 72.7392 70.2846C70.1049 71.0294 67.1567 70.367 65.0833 68.2938C63.0097 66.2202 62.346 63.271 63.0911 60.6364ZM38.7097 62.4277C40.826 60.3115 43.8356 59.6349 46.5245 60.3955C47.2847 63.0841 46.6083 66.0941 44.4922 68.2102C42.3759 70.3263 39.3662 71.0016 36.6775 70.2411C35.9176 67.5527 36.594 64.5436 38.7097 62.4277ZM65.3457 36.1025C67.3478 34.1003 70.1954 33.4598 72.7392 34.1793C73.4585 36.723 72.8187 39.5702 70.8168 41.5722C68.8148 43.574 65.9675 44.2139 63.4239 43.4946C62.7046 40.9512 63.3441 38.1045 65.3457 36.1025ZM37.0276 34.5729C39.6651 33.827 42.6172 34.4907 44.6932 36.5665C46.769 38.6423 47.4318 41.594 46.6861 44.2314C44.0486 44.9772 41.097 44.3144 39.0211 42.2386C36.9452 40.1626 36.2815 37.2105 37.0276 34.5729Z"/>
</mask>
<path d="M63.0911 60.6364C65.7258 59.8911 68.6753 60.5542 70.7491 62.6279C72.8224 64.7015 73.4843 67.6501 72.7392 70.2846C70.1049 71.0294 67.1567 70.367 65.0833 68.2938C63.0097 66.2202 62.346 63.271 63.0911 60.6364ZM38.7097 62.4277C40.826 60.3115 43.8356 59.6349 46.5245 60.3955C47.2847 63.0841 46.6083 66.0941 44.4922 68.2102C42.3759 70.3263 39.3662 71.0016 36.6775 70.2411C35.9176 67.5527 36.594 64.5436 38.7097 62.4277ZM65.3457 36.1025C67.3478 34.1003 70.1954 33.4598 72.7392 34.1793C73.4585 36.723 72.8187 39.5702 70.8168 41.5722C68.8148 43.574 65.9675 44.2139 63.4239 43.4946C62.7046 40.9512 63.3441 38.1045 65.3457 36.1025ZM37.0276 34.5729C39.6651 33.827 42.6172 34.4907 44.6932 36.5665C46.769 38.6423 47.4318 41.594 46.6861 44.2314C44.0486 44.9772 41.097 44.3144 39.0211 42.2386C36.9452 40.1626 36.2815 37.2105 37.0276 34.5729Z" fill="#F3EED1"/>
<path d="M63.0911 60.6364L62.5467 58.712L61.4708 59.0163L61.1665 60.0922L63.0911 60.6364ZM70.7491 62.6279L72.1634 61.2138L72.1633 61.2137L70.7491 62.6279ZM72.7392 70.2846L73.2833 72.2092L74.3594 71.9049L74.6637 70.8289L72.7392 70.2846ZM65.0833 68.2938L63.669 69.708L63.6691 69.7081L65.0833 68.2938ZM38.7097 62.4277L37.2955 61.0134L37.2954 61.0136L38.7097 62.4277ZM46.5245 60.3955L48.449 59.8513L48.1448 58.7753L47.0688 58.471L46.5245 60.3955ZM44.4922 68.2102L45.9064 69.6245L45.9064 69.6244L44.4922 68.2102ZM36.6775 70.2411L34.7529 70.7851L35.057 71.8612L36.1331 72.1656L36.6775 70.2411ZM65.3457 36.1025L63.9315 34.6883L63.9313 34.6884L65.3457 36.1025ZM72.7392 34.1793L74.6638 33.6351L74.3595 32.5592L73.2836 32.2548L72.7392 34.1793ZM70.8168 41.5722L72.2309 42.9865L72.231 42.9864L70.8168 41.5722ZM63.4239 43.4946L61.4994 44.0389L61.8037 45.1149L62.8797 45.4192L63.4239 43.4946ZM37.0276 34.5729L36.4833 32.6484L35.4074 32.9527L35.1031 34.0286L37.0276 34.5729ZM44.6932 36.5665L46.1074 35.1523L46.1073 35.1523L44.6932 36.5665ZM46.6861 44.2314L47.2302 46.156L48.3064 45.8517L48.6106 44.7756L46.6861 44.2314ZM39.0211 42.2386L37.6069 43.6527L37.6069 43.6528L39.0211 42.2386ZM63.0911 60.6364L63.6355 62.5609C65.6021 62.0046 67.7943 62.5016 69.3349 64.0422L70.7491 62.6279L72.1633 61.2137C69.5564 58.6068 65.8496 57.7776 62.5467 58.712L63.0911 60.6364ZM70.7491 62.6279L69.3348 64.0421C70.8746 65.5821 71.371 67.7734 70.8147 69.7403L72.7392 70.2846L74.6637 70.8289C75.5976 67.5268 74.7702 63.8209 72.1634 61.2138L70.7491 62.6279ZM72.7392 70.2846L72.1951 68.36C70.2286 68.916 68.0375 68.4194 66.4974 66.8795L65.0833 68.2938L63.6691 69.7081C66.2759 72.3145 69.9812 73.1427 73.2833 72.2092L72.7392 70.2846ZM65.0833 68.2938L66.4975 66.8796C64.9568 65.3389 64.4596 63.1469 65.0156 61.1807L63.0911 60.6364L61.1665 60.0922C60.2325 63.3952 61.0625 67.1015 63.669 69.708L65.0833 68.2938ZM38.7097 62.4277L40.1239 63.8419C41.7071 62.2589 43.9594 61.7484 45.9801 62.3199L46.5245 60.3955L47.0688 58.471C43.7118 57.5214 39.945 58.3641 37.2955 61.0134L38.7097 62.4277ZM46.5245 60.3955L44.5999 60.9396C45.1713 62.9605 44.6608 65.2132 43.078 66.796L44.4922 68.2102L45.9064 69.6244C48.5559 66.975 49.398 63.2078 48.449 59.8513L46.5245 60.3955ZM44.4922 68.2102L43.0781 66.7959C41.4954 68.3784 39.2431 68.8883 37.2218 68.3166L36.6775 70.2411L36.1331 72.1656C39.4893 73.1149 43.2564 72.2742 45.9064 69.6245L44.4922 68.2102ZM36.6775 70.2411L38.6021 69.6971C38.031 67.6766 38.5414 65.4246 40.124 63.8418L38.7097 62.4277L37.2954 61.0136C34.6466 63.6627 33.8042 67.4288 34.7529 70.7851L36.6775 70.2411ZM65.3457 36.1025L66.7599 37.5167C68.229 36.0476 70.3194 35.5734 72.1949 36.1038L72.7392 34.1793L73.2836 32.2548C70.0714 31.3463 66.4666 32.1531 63.9315 34.6883L65.3457 36.1025ZM72.7392 34.1793L70.8147 34.7235C71.3451 36.5993 70.8712 38.6893 69.4025 40.158L70.8168 41.5722L72.231 42.9864C74.7662 40.4511 75.5719 36.8466 74.6638 33.6351L72.7392 34.1793ZM70.8168 41.5722L69.4026 40.1579C67.9338 41.6265 65.8438 42.1005 63.9681 41.5701L63.4239 43.4946L62.8797 45.4192C66.0912 46.3273 69.6957 45.5215 72.2309 42.9865L70.8168 41.5722ZM63.4239 43.4946L65.3484 42.9504C64.818 41.0747 65.2916 38.9852 66.76 37.5165L65.3457 36.1025L63.9313 34.6884C61.3965 37.2238 60.5913 40.8276 61.4994 44.0389L63.4239 43.4946ZM37.0276 34.5729L37.5719 36.4974C39.5412 35.9405 41.7362 36.438 43.279 37.9808L44.6932 36.5665L46.1073 35.1523C43.4983 32.5433 39.7889 31.7135 36.4833 32.6484L37.0276 34.5729ZM44.6932 36.5665L43.279 37.9807C44.8213 39.523 45.3185 41.7174 44.7615 43.6873L46.6861 44.2314L48.6106 44.7756C49.5451 41.4705 48.7167 37.7616 46.1074 35.1523L44.6932 36.5665ZM46.6861 44.2314L46.1419 42.3069C44.172 42.8639 41.9777 42.3667 40.4353 40.8243L39.0211 42.2386L37.6069 43.6528C40.2162 46.2621 43.9251 47.0905 47.2302 46.156L46.6861 44.2314ZM39.0211 42.2386L40.4354 40.8244C38.8926 39.2815 38.395 37.0867 38.9521 35.1173L37.0276 34.5729L35.1031 34.0286C34.1681 37.3343 34.9979 41.0436 37.6069 43.6527L39.0211 42.2386Z" fill="#FDFAEB" mask="url(#path-7-inside-1_3067_3835)"/>
<mask id="path-9-inside-2_3067_3835" fill="white">
<path d="M55.0631 23.6076C61.2774 27.0815 65.5228 33.6524 65.7135 41.2317C65.7278 41.2316 65.7421 41.2317 65.7565 41.2317C73.5598 41.2317 80.3577 45.5324 83.9127 51.8918C80.3577 58.2513 73.5599 62.552 65.7565 62.552C65.7451 62.552 65.7337 62.551 65.7223 62.551C65.7223 62.563 65.7233 62.5751 65.7233 62.5871C65.7231 70.3901 61.4222 77.1874 55.0631 80.7424C48.7038 77.1875 44.4031 70.3903 44.403 62.5871C44.403 62.5751 44.4029 62.563 44.403 62.551C36.6136 62.5388 29.8309 58.2422 26.2809 51.8918C29.8321 45.5394 36.6181 41.241 44.4108 41.2317C44.6014 33.6522 48.8485 27.0814 55.0631 23.6076Z"/>
</mask>
<path d="M55.0631 23.6076C61.2774 27.0815 65.5228 33.6524 65.7135 41.2317C65.7278 41.2316 65.7421 41.2317 65.7565 41.2317C73.5598 41.2317 80.3577 45.5324 83.9127 51.8918C80.3577 58.2513 73.5599 62.552 65.7565 62.552C65.7451 62.552 65.7337 62.551 65.7223 62.551C65.7223 62.563 65.7233 62.5751 65.7233 62.5871C65.7231 70.3901 61.4222 77.1874 55.0631 80.7424C48.7038 77.1875 44.4031 70.3903 44.403 62.5871C44.403 62.5751 44.4029 62.563 44.403 62.551C36.6136 62.5388 29.8309 58.2422 26.2809 51.8918C29.8321 45.5394 36.6181 41.241 44.4108 41.2317C44.6014 33.6522 48.8485 27.0814 55.0631 23.6076Z" fill="#FBF5E5"/>
<path d="M55.0631 23.6076L56.039 21.8619L55.0631 21.3164L54.0873 21.8619L55.0631 23.6076ZM65.7135 41.2317L63.7141 41.282L63.7633 43.2357L65.7176 43.2317L65.7135 41.2317ZM65.7565 41.2317V39.2317H65.7564L65.7565 41.2317ZM83.9127 51.8918L85.6585 52.8677L86.204 51.8918L85.6585 50.9159L83.9127 51.8918ZM65.7565 62.552L65.7564 64.552H65.7565V62.552ZM65.7223 62.551L65.7256 60.551L63.7189 60.5477L63.7223 62.5544L65.7223 62.551ZM65.7233 62.5871L67.7233 62.5872V62.5871H65.7233ZM55.0631 80.7424L54.0872 82.4881L55.0631 83.0337L56.039 82.4881L55.0631 80.7424ZM44.403 62.5871H42.403V62.5872L44.403 62.5871ZM44.403 62.551L46.403 62.5544L46.4063 60.5541L44.4061 60.551L44.403 62.551ZM26.2809 51.8918L24.5351 50.9159L23.9896 51.8918L24.5351 52.8677L26.2809 51.8918ZM44.4108 41.2317L44.4132 43.2317L46.3612 43.2293L46.4101 41.2819L44.4108 41.2317ZM55.0631 23.6076L54.0872 25.3534C59.7085 28.4957 63.5419 34.4355 63.7141 41.282L65.7135 41.2317L67.7129 41.1814C67.5038 32.8692 62.8464 25.6673 56.039 21.8619L55.0631 23.6076ZM65.7135 41.2317L65.7176 43.2317C65.7296 43.2316 65.7362 43.2317 65.7565 43.2317L65.7565 41.2317L65.7564 39.2317C65.7481 39.2317 65.726 39.2316 65.7094 39.2317L65.7135 41.2317ZM65.7565 41.2317V43.2317C72.8061 43.2317 78.951 47.1146 82.167 52.8677L83.9127 51.8918L85.6585 50.9159C81.7645 43.9501 74.3136 39.2317 65.7565 39.2317V41.2317ZM83.9127 51.8918L82.167 50.9159C78.951 56.669 72.8062 60.552 65.7565 60.552V62.552V64.552C74.3136 64.552 81.7645 59.8336 85.6585 52.8677L83.9127 51.8918ZM65.7565 62.552L65.7565 60.552C65.7811 60.552 65.8005 60.5525 65.8112 60.5528C65.8167 60.553 65.8208 60.5532 65.8229 60.5532C65.8246 60.5533 65.8259 60.5534 65.8242 60.5533C65.8234 60.5533 65.8194 60.5531 65.8151 60.5529C65.8105 60.5527 65.8038 60.5525 65.7957 60.5522C65.7799 60.5517 65.7553 60.551 65.7256 60.551L65.7223 62.551L65.719 64.551C65.695 64.551 65.6761 64.5504 65.666 64.5501C65.6608 64.5499 65.6568 64.5498 65.6551 64.5497C65.6536 64.5497 65.6525 64.5496 65.6546 64.5497C65.6557 64.5497 65.6598 64.5499 65.6644 64.5501C65.6693 64.5503 65.6763 64.5506 65.6847 64.5508C65.7011 64.5513 65.7261 64.552 65.7564 64.552L65.7565 62.552ZM65.7223 62.551L63.7223 62.5544C63.7223 62.5828 63.7229 62.6063 63.7234 62.6214C63.7236 62.6291 63.7239 62.6356 63.724 62.6401C63.7242 62.6442 63.7243 62.6481 63.7244 62.649C63.7245 62.6508 63.7244 62.6498 63.7244 62.6483C63.7243 62.6465 63.7242 62.6428 63.724 62.6378C63.7237 62.6281 63.7233 62.6101 63.7233 62.5871H65.7233H67.7233C67.7233 62.5581 67.7227 62.5341 67.7222 62.5184C67.722 62.5104 67.7217 62.5036 67.7216 62.4989C67.7214 62.4944 67.7212 62.4904 67.7212 62.4891C67.7211 62.487 67.7211 62.4879 67.7212 62.489C67.7212 62.4904 67.7214 62.4939 67.7215 62.4986C67.7218 62.5077 67.7222 62.5252 67.7223 62.5476L65.7223 62.551ZM65.7233 62.5871L63.7233 62.5871C63.7231 69.6363 59.84 75.7806 54.0872 78.9967L55.0631 80.7424L56.039 82.4881C63.0044 78.5942 67.7231 71.144 67.7233 62.5872L65.7233 62.5871ZM55.0631 80.7424L56.039 78.9967C50.286 75.7807 46.4031 69.6365 46.403 62.5871L44.403 62.5871L42.403 62.5872C42.4032 71.1441 47.1216 78.5943 54.0872 82.4881L55.0631 80.7424ZM44.403 62.5871H46.403C46.403 62.5704 46.4029 62.5644 46.403 62.5544L44.403 62.551L42.403 62.5476C42.4029 62.5616 42.403 62.5799 42.403 62.5871H44.403ZM44.403 62.551L44.4061 60.551C37.3691 60.54 31.2381 56.6607 28.0266 50.9159L26.2809 51.8918L24.5351 52.8677C28.4236 59.8236 35.858 64.5377 44.3998 64.551L44.403 62.551ZM26.2809 51.8918L28.0266 52.8677C31.2393 47.1209 37.3734 43.2401 44.4132 43.2317L44.4108 41.2317L44.4084 39.2317C35.8628 39.2419 28.4249 43.9579 24.5351 50.9159L26.2809 51.8918ZM44.4108 41.2317L46.4101 41.2819C46.5823 34.4357 50.4172 28.4959 56.039 25.3534L55.0631 23.6076L54.0873 21.8619C47.2799 25.667 42.6205 32.8687 42.4114 41.1814L44.4108 41.2317Z" fill="#FDFAEB" mask="url(#path-9-inside-2_3067_3835)"/>
<path d="M57.8086 57.4653C59.1845 57.4464 60.5298 58.1515 61.2668 59.4279C62.0038 60.7043 61.9416 62.2219 61.2373 63.404C59.8615 63.4227 58.5167 62.7173 57.7799 61.441C57.0432 60.1648 57.1045 58.6474 57.8086 57.4653ZM45.7384 55.1627C47.041 54.4108 48.5901 54.4745 49.7964 55.1934C49.8158 56.5977 49.0958 57.9715 47.7932 58.7237C46.4906 59.4755 44.9415 59.4117 43.7351 58.6929C43.7157 57.2885 44.4356 55.9148 45.7384 55.1627ZM62.0941 45.8471C63.3264 45.1356 64.7919 45.1957 65.9333 45.8757C65.9515 47.2042 65.2708 48.5032 64.0384 49.2148C62.8059 49.9261 61.3409 49.8652 60.1996 49.1849C60.1819 47.857 60.8623 46.5584 62.0941 45.8471ZM48.5449 41.4202C49.9226 41.401 51.2702 42.1075 52.0081 43.3855C52.7458 44.6634 52.6832 46.183 51.978 47.3665C50.6003 47.3856 49.2526 46.6792 48.5148 45.4012C47.7773 44.1234 47.8397 42.6036 48.5449 41.4202Z" fill="#F3EED1"/>
<path d="M51.9731 57.4497C52.6777 58.6319 52.7395 60.1493 52.0027 61.4259C51.2654 62.7027 49.9196 63.4082 48.5431 63.3888C47.8395 62.2068 47.7779 60.689 48.5144 59.4131C49.2513 58.1368 50.5973 57.431 51.9731 57.4497ZM47.9322 45.8452C49.2352 46.5976 49.9551 47.9709 49.9355 49.3755C48.7291 50.0941 47.1804 50.1572 45.8779 49.4054C44.5748 48.653 43.8553 47.2791 43.8751 45.8743C45.0814 45.1561 46.6299 45.0934 47.9322 45.8452ZM64.1788 55.3538C65.4112 56.0653 66.0933 57.364 66.075 58.6925C64.9334 59.3731 63.4672 59.4332 62.2345 58.7215C61.0019 58.0098 60.3216 56.7102 60.3401 55.3815C61.4815 54.7017 62.9465 54.6423 64.1788 55.3538ZM61.2363 41.4054C61.9418 42.589 62.0043 44.1084 61.2664 45.3864C60.5283 46.6647 59.1809 47.3699 57.8029 47.3504C57.098 46.167 57.0369 44.648 57.7744 43.3703C58.5122 42.0924 59.8588 41.3865 61.2363 41.4054Z" fill="#F3EED1"/>
<mask id="path-13-inside-3_3067_3835" fill="white">
<path d="M55.0862 43.7067C56.9785 44.7646 58.2723 46.7649 58.3303 49.0729C58.3346 49.0729 58.3388 49.0729 58.343 49.0729C60.7191 49.0729 62.7886 50.3828 63.8713 52.319C62.7887 54.2555 60.7192 55.5661 58.343 55.5661C58.3394 55.5661 58.3359 55.5651 58.3323 55.5651C58.3323 55.5687 58.3333 55.5723 58.3333 55.5759C58.3333 57.952 57.0225 60.0205 55.0862 61.1032C53.1501 60.0205 51.8401 57.9518 51.8401 55.5759C51.8401 55.5723 51.8401 55.5687 51.8401 55.5651C49.4684 55.5613 47.4046 54.2524 46.3235 52.319C47.405 50.3852 49.4696 49.076 51.842 49.0729C51.9001 46.765 53.194 44.7647 55.0862 43.7067Z"/>
</mask>
<path d="M55.0862 43.7067C56.9785 44.7646 58.2723 46.7649 58.3303 49.0729C58.3346 49.0729 58.3388 49.0729 58.343 49.0729C60.7191 49.0729 62.7886 50.3828 63.8713 52.319C62.7887 54.2555 60.7192 55.5661 58.343 55.5661C58.3394 55.5661 58.3359 55.5651 58.3323 55.5651C58.3323 55.5687 58.3333 55.5723 58.3333 55.5759C58.3333 57.952 57.0225 60.0205 55.0862 61.1032C53.1501 60.0205 51.8401 57.9518 51.8401 55.5759C51.8401 55.5723 51.8401 55.5687 51.8401 55.5651C49.4684 55.5613 47.4046 54.2524 46.3235 52.319C47.405 50.3852 49.4696 49.076 51.842 49.0729C51.9001 46.765 53.194 44.7647 55.0862 43.7067Z" fill="#EAEBD4"/>
<path d="M55.0862 43.7067L55.8181 42.3974L55.0861 41.9882L54.3542 42.3975L55.0862 43.7067ZM58.3303 49.0729L56.8308 49.1107L56.8677 50.5759L58.3334 50.5729L58.3303 49.0729ZM58.343 49.0729V47.5729H58.3429L58.343 49.0729ZM63.8713 52.319L65.1806 53.051L65.5899 52.319L65.1806 51.5869L63.8713 52.319ZM58.343 55.5661L58.3429 57.0661H58.343V55.5661ZM58.3323 55.5651L58.3349 54.0651L56.8298 54.0625L56.8323 55.5676L58.3323 55.5651ZM58.3333 55.5759H59.8333V55.5758L58.3333 55.5759ZM55.0862 61.1032L54.354 62.4124L55.0861 62.8218L55.8182 62.4124L55.0862 61.1032ZM51.8401 55.5759L50.3401 55.5758V55.5759H51.8401ZM51.8401 55.5651L53.3401 55.5677L53.3426 54.0675L51.8425 54.0651L51.8401 55.5651ZM46.3235 52.319L45.0143 51.5869L44.6049 52.319L45.0143 53.0511L46.3235 52.319ZM51.842 49.0729L51.844 50.5729L53.3048 50.571L53.3416 49.1107L51.842 49.0729ZM55.0862 43.7067L54.3542 45.016C55.8024 45.8256 56.7866 47.3529 56.8308 49.1107L58.3303 49.0729L59.8298 49.0352C59.7579 46.1769 58.1547 43.7037 55.8181 42.3974L55.0862 43.7067ZM58.3303 49.0729L58.3334 50.5729C58.336 50.5729 58.3341 50.5729 58.3431 50.5729L58.343 49.0729L58.3429 47.5729C58.3414 47.5729 58.3406 47.5729 58.3375 47.5729C58.335 47.5729 58.3313 47.5729 58.3273 47.5729L58.3303 49.0729ZM58.343 49.0729V50.5729C60.1535 50.5729 61.7335 51.5693 62.5621 53.0511L63.8713 52.319L65.1806 51.5869C63.8438 49.1963 61.2846 47.5729 58.343 47.5729V49.0729ZM63.8713 52.319L62.5621 51.587C61.7333 53.0693 60.1533 54.0661 58.343 54.0661V55.5661V57.0661C61.2851 57.0661 63.844 55.4416 65.1806 53.051L63.8713 52.319ZM58.343 55.5661L58.3431 54.0661C58.3764 54.0661 58.4058 54.0672 58.4305 54.0687C58.4551 54.0702 58.4761 54.072 58.4922 54.0737C58.5081 54.0753 58.5208 54.0768 58.5284 54.0778C58.5322 54.0783 58.5353 54.0787 58.5371 54.0789C58.5387 54.0792 58.5401 54.0793 58.5397 54.0793C58.5396 54.0793 58.5392 54.0792 58.5386 54.0791C58.5381 54.0791 58.5372 54.0789 58.5361 54.0788C58.5339 54.0785 58.5305 54.0781 58.5263 54.0775C58.5181 54.0765 58.5046 54.0748 58.488 54.0731C58.4713 54.0714 58.4497 54.0694 58.4244 54.0679C58.399 54.0664 58.3688 54.0652 58.3349 54.0651L58.3323 55.5651L58.3297 57.0651C58.2966 57.0651 58.2674 57.0639 58.2429 57.0624C58.2185 57.0609 58.1977 57.0591 58.1819 57.0574C58.1662 57.0558 58.1536 57.0543 58.1463 57.0534C58.1426 57.0529 58.1396 57.0525 58.1379 57.0523C58.1364 57.0521 58.1351 57.0519 58.1356 57.0519C58.1357 57.052 58.1375 57.0522 58.1395 57.0525C58.1418 57.0528 58.1453 57.0532 58.1496 57.0538C58.1581 57.0549 58.1717 57.0565 58.1885 57.0582C58.2055 57.06 58.2273 57.0619 58.2528 57.0634C58.2784 57.0649 58.3087 57.0661 58.3429 57.0661L58.343 55.5661ZM58.3323 55.5651L56.8323 55.5676C56.8323 55.6016 56.8335 55.6318 56.8351 55.6572C56.8366 55.6825 56.8385 55.7042 56.8403 55.7209C56.842 55.7375 56.8436 55.751 56.8447 55.7592C56.8452 55.7634 56.8457 55.7668 56.846 55.769C56.8461 55.77 56.8462 55.771 56.8463 55.7715C56.8464 55.7721 56.8464 55.7725 56.8464 55.7726C56.8465 55.773 56.8463 55.7716 56.8461 55.77C56.8459 55.7682 56.8454 55.7651 56.845 55.7612C56.844 55.7537 56.8424 55.7409 56.8408 55.725C56.8392 55.7089 56.8373 55.688 56.8358 55.6633C56.8344 55.6386 56.8333 55.6092 56.8333 55.5759L58.3333 55.5759L59.8333 55.5758C59.8333 55.5417 59.8321 55.5113 59.8306 55.4857C59.8291 55.4602 59.8271 55.4383 59.8254 55.4214C59.8237 55.4045 59.822 55.3909 59.8209 55.3824C59.8204 55.3781 59.8199 55.3746 59.8196 55.3723C59.8193 55.3703 59.8191 55.3685 59.8191 55.3684C59.819 55.3679 59.8192 55.3692 59.8194 55.3707C59.8196 55.3724 59.82 55.3754 59.8205 55.3791C59.8214 55.3864 59.823 55.399 59.8246 55.4147C59.8262 55.4306 59.8281 55.4513 59.8296 55.4758C59.8311 55.5003 59.8322 55.5295 59.8323 55.5626L58.3323 55.5651ZM58.3333 55.5759H56.8333C56.8333 57.3858 55.8366 58.9651 54.3541 59.794L55.0862 61.1032L55.8182 62.4124C58.2084 61.076 59.8333 58.5182 59.8333 55.5759H58.3333ZM55.0862 61.1032L55.8183 59.794C54.3363 58.9652 53.3401 57.386 53.3401 55.5759H51.8401H50.3401C50.3401 58.5176 51.9639 61.0757 54.354 62.4124L55.0862 61.1032ZM51.8401 55.5759L53.3401 55.5759C53.3401 55.5685 53.3401 55.5699 53.3401 55.5677L51.8401 55.5651L50.3401 55.5626C50.3401 55.566 50.3401 55.569 50.3401 55.5712C50.3401 55.5738 50.3401 55.5745 50.3401 55.5758L51.8401 55.5759ZM51.8401 55.5651L51.8425 54.0651C50.0357 54.0622 48.4603 53.067 47.6327 51.5869L46.3235 52.319L45.0143 53.0511C46.3489 55.4379 48.901 57.0604 51.8377 57.0651L51.8401 55.5651ZM46.3235 52.319L47.6327 53.0512C48.4606 51.5708 50.0367 50.5753 51.844 50.5729L51.842 49.0729L51.8401 47.5729C48.9025 47.5767 46.3494 49.1996 45.0143 51.5869L46.3235 52.319ZM51.842 49.0729L53.3416 49.1107C53.3858 47.353 54.3701 45.8256 55.8182 45.016L55.0862 43.7067L54.3542 42.3975C52.0178 43.7037 50.4144 46.177 50.3425 49.0352L51.842 49.0729Z" fill="#FDFAEB" mask="url(#path-13-inside-3_3067_3835)"/>
<path d="M36.962 40.988C32.6121 40.988 27.5374 47.1502 25.5437 50.2313C25.5437 43.2716 32.0684 35.3695 35.3308 32.8321C34.787 36.0944 35.7904 39.7193 36.962 40.988Z" fill="#BEDED1"/>
<path d="M36.4183 63.825C32.0684 63.825 26.9937 57.6627 25 54.5816C25 61.5413 31.5247 69.4435 34.7871 71.9809C34.2433 68.7185 35.2467 65.0937 36.4183 63.825Z" fill="#BEDED1"/>
<path d="M44.0306 34.463C41.4207 31.8532 36.7809 32.8319 34.7872 33.3756C36.9621 31.2007 41.3119 29.0258 44.5743 28.4821C43.4869 19.2388 50.0116 20.3262 55.4488 22.5012C48.9241 24.2411 45.118 31.2007 44.0306 34.463Z" fill="#ECDEBD"/>
<path d="M44.0306 70.8936C41.4207 73.5035 36.7809 72.5248 34.7872 71.981C36.9621 74.156 41.3119 76.3309 44.5743 76.8745C43.4869 86.1179 50.0116 85.0305 55.4488 82.8555C48.9241 81.1156 45.118 74.1559 44.0306 70.8936Z" fill="#ECDEBD"/>
</g>
<g filter="url(#filter2_d_3067_3835)">
<mask id="path-19-inside-4_3067_3835" fill="white">
<path d="M260.951 60.6364C258.316 59.8911 255.366 60.5542 253.293 62.6279C251.219 64.7015 250.558 67.6501 251.303 70.2846C253.937 71.0294 256.885 70.367 258.959 68.2938C261.032 66.2202 261.696 63.271 260.951 60.6364ZM285.332 62.4277C283.216 60.3115 280.206 59.6349 277.517 60.3955C276.757 63.0841 277.433 66.0941 279.55 68.2102C281.666 70.3263 284.676 71.0016 287.364 70.2411C288.124 67.5527 287.448 64.5436 285.332 62.4277ZM258.696 36.1025C256.694 34.1003 253.846 33.4598 251.303 34.1793C250.583 36.723 251.223 39.5702 253.225 41.5722C255.227 43.574 258.074 44.2139 260.618 43.4946C261.337 40.9512 260.698 38.1045 258.696 36.1025ZM287.014 34.5729C284.377 33.827 281.425 34.4907 279.349 36.5665C277.273 38.6423 276.61 41.594 277.356 44.2314C279.993 44.9772 282.945 44.3144 285.021 42.2386C287.097 40.1626 287.76 37.2105 287.014 34.5729Z"/>
</mask>
<path d="M260.951 60.6364C258.316 59.8911 255.366 60.5542 253.293 62.6279C251.219 64.7015 250.558 67.6501 251.303 70.2846C253.937 71.0294 256.885 70.367 258.959 68.2938C261.032 66.2202 261.696 63.271 260.951 60.6364ZM285.332 62.4277C283.216 60.3115 280.206 59.6349 277.517 60.3955C276.757 63.0841 277.433 66.0941 279.55 68.2102C281.666 70.3263 284.676 71.0016 287.364 70.2411C288.124 67.5527 287.448 64.5436 285.332 62.4277ZM258.696 36.1025C256.694 34.1003 253.846 33.4598 251.303 34.1793C250.583 36.723 251.223 39.5702 253.225 41.5722C255.227 43.574 258.074 44.2139 260.618 43.4946C261.337 40.9512 260.698 38.1045 258.696 36.1025ZM287.014 34.5729C284.377 33.827 281.425 34.4907 279.349 36.5665C277.273 38.6423 276.61 41.594 277.356 44.2314C279.993 44.9772 282.945 44.3144 285.021 42.2386C287.097 40.1626 287.76 37.2105 287.014 34.5729Z" fill="#F3EED1"/>
<path d="M260.951 60.6364L261.495 58.712L262.571 59.0163L262.875 60.0922L260.951 60.6364ZM253.293 62.6279L251.878 61.2138L251.879 61.2137L253.293 62.6279ZM251.303 70.2846L250.758 72.2092L249.682 71.9049L249.378 70.8289L251.303 70.2846ZM258.959 68.2938L260.373 69.708L260.373 69.7081L258.959 68.2938ZM285.332 62.4277L286.746 61.0134L286.746 61.0136L285.332 62.4277ZM277.517 60.3955L275.593 59.8513L275.897 58.7753L276.973 58.471L277.517 60.3955ZM279.55 68.2102L278.135 69.6245L278.135 69.6244L279.55 68.2102ZM287.364 70.2411L289.289 70.7851L288.985 71.8612L287.909 72.1656L287.364 70.2411ZM258.696 36.1025L260.11 34.6883L260.11 34.6884L258.696 36.1025ZM251.303 34.1793L249.378 33.6351L249.682 32.5592L250.758 32.2548L251.303 34.1793ZM253.225 41.5722L251.811 42.9865L251.811 42.9864L253.225 41.5722ZM260.618 43.4946L262.542 44.0389L262.238 45.1149L261.162 45.4192L260.618 43.4946ZM287.014 34.5729L287.559 32.6484L288.634 32.9527L288.939 34.0286L287.014 34.5729ZM279.349 36.5665L277.934 35.1523L277.934 35.1523L279.349 36.5665ZM277.356 44.2314L276.812 46.156L275.735 45.8517L275.431 44.7756L277.356 44.2314ZM285.021 42.2386L286.435 43.6527L286.435 43.6528L285.021 42.2386ZM260.951 60.6364L260.406 62.5609C258.44 62.0046 256.248 62.5016 254.707 64.0422L253.293 62.6279L251.879 61.2137C254.485 58.6068 258.192 57.7776 261.495 58.712L260.951 60.6364ZM253.293 62.6279L254.707 64.0421C253.167 65.5821 252.671 67.7734 253.227 69.7403L251.303 70.2846L249.378 70.8289C248.444 67.5268 249.272 63.8209 251.878 61.2138L253.293 62.6279ZM251.303 70.2846L251.847 68.36C253.813 68.916 256.004 68.4194 257.544 66.8795L258.959 68.2938L260.373 69.7081C257.766 72.3145 254.061 73.1427 250.758 72.2092L251.303 70.2846ZM258.959 68.2938L257.544 66.8796C259.085 65.3389 259.582 63.1469 259.026 61.1807L260.951 60.6364L262.875 60.0922C263.809 63.3952 262.979 67.1015 260.373 69.708L258.959 68.2938ZM285.332 62.4277L283.918 63.8419C282.335 62.2589 280.082 61.7484 278.062 62.3199L277.517 60.3955L276.973 58.471C280.33 57.5214 284.097 58.3641 286.746 61.0134L285.332 62.4277ZM277.517 60.3955L279.442 60.9396C278.871 62.9605 279.381 65.2132 280.964 66.796L279.55 68.2102L278.135 69.6244C275.486 66.975 274.644 63.2078 275.593 59.8513L277.517 60.3955ZM279.55 68.2102L280.964 66.7959C282.546 68.3784 284.799 68.8883 286.82 68.3166L287.364 70.2411L287.909 72.1656C284.553 73.1149 280.785 72.2742 278.135 69.6245L279.55 68.2102ZM287.364 70.2411L285.44 69.6971C286.011 67.6766 285.5 65.4246 283.918 63.8418L285.332 62.4277L286.746 61.0136C289.395 63.6627 290.238 67.4288 289.289 70.7851L287.364 70.2411ZM258.696 36.1025L257.282 37.5167C255.813 36.0476 253.722 35.5734 251.847 36.1038L251.303 34.1793L250.758 32.2548C253.97 31.3463 257.575 32.1531 260.11 34.6883L258.696 36.1025ZM251.303 34.1793L253.227 34.7235C252.697 36.5993 253.171 38.6893 254.639 40.158L253.225 41.5722L251.811 42.9864C249.276 40.4511 248.47 36.8466 249.378 33.6351L251.303 34.1793ZM253.225 41.5722L254.639 40.1579C256.108 41.6265 258.198 42.1005 260.074 41.5701L260.618 43.4946L261.162 45.4192C257.951 46.3273 254.346 45.5215 251.811 42.9865L253.225 41.5722ZM260.618 43.4946L258.693 42.9504C259.224 41.0747 258.75 38.9852 257.282 37.5165L258.696 36.1025L260.11 34.6884C262.645 37.2238 263.451 40.8276 262.542 44.0389L260.618 43.4946ZM287.014 34.5729L286.47 36.4974C284.501 35.9405 282.306 36.438 280.763 37.9808L279.349 36.5665L277.934 35.1523C280.544 32.5433 284.253 31.7135 287.559 32.6484L287.014 34.5729ZM279.349 36.5665L280.763 37.9807C279.221 39.523 278.723 41.7174 279.28 43.6873L277.356 44.2314L275.431 44.7756C274.497 41.4705 275.325 37.7616 277.934 35.1523L279.349 36.5665ZM277.356 44.2314L277.9 42.3069C279.87 42.8639 282.064 42.3667 283.606 40.8243L285.021 42.2386L286.435 43.6528C283.826 46.2621 280.117 47.0905 276.812 46.156L277.356 44.2314ZM285.021 42.2386L283.606 40.8244C285.149 39.2815 285.647 37.0867 285.09 35.1173L287.014 34.5729L288.939 34.0286C289.874 37.3343 289.044 41.0436 286.435 43.6527L285.021 42.2386Z" fill="#FDFAEB" mask="url(#path-19-inside-4_3067_3835)"/>
<mask id="path-21-inside-5_3067_3835" fill="white">
<path d="M268.979 23.6076C262.764 27.0815 258.519 33.6524 258.328 41.2317C258.314 41.2316 258.3 41.2317 258.285 41.2317C250.482 41.2317 243.684 45.5324 240.129 51.8918C243.684 58.2513 250.482 62.552 258.285 62.552C258.297 62.552 258.308 62.551 258.32 62.551C258.319 62.563 258.319 62.5751 258.319 62.5871C258.319 70.3901 262.62 77.1874 268.979 80.7424C275.338 77.1875 279.639 70.3903 279.639 62.5871C279.639 62.5751 279.639 62.563 279.639 62.551C287.428 62.5388 294.211 58.2422 297.761 51.8918C294.21 45.5394 287.424 41.241 279.631 41.2317C279.44 33.6522 275.193 27.0814 268.979 23.6076Z"/>
</mask>
<path d="M268.979 23.6076C262.764 27.0815 258.519 33.6524 258.328 41.2317C258.314 41.2316 258.3 41.2317 258.285 41.2317C250.482 41.2317 243.684 45.5324 240.129 51.8918C243.684 58.2513 250.482 62.552 258.285 62.552C258.297 62.552 258.308 62.551 258.32 62.551C258.319 62.563 258.319 62.5751 258.319 62.5871C258.319 70.3901 262.62 77.1874 268.979 80.7424C275.338 77.1875 279.639 70.3903 279.639 62.5871C279.639 62.5751 279.639 62.563 279.639 62.551C287.428 62.5388 294.211 58.2422 297.761 51.8918C294.21 45.5394 287.424 41.241 279.631 41.2317C279.44 33.6522 275.193 27.0814 268.979 23.6076Z" fill="#FBF5E5"/>
<path d="M268.979 23.6076L268.003 21.8619L268.979 21.3164L269.955 21.8619L268.979 23.6076ZM258.328 41.2317L260.328 41.282L260.279 43.2357L258.324 43.2317L258.328 41.2317ZM258.285 41.2317V39.2317H258.285L258.285 41.2317ZM240.129 51.8918L238.383 52.8677L237.838 51.8918L238.383 50.9159L240.129 51.8918ZM258.285 62.552L258.285 64.552H258.285V62.552ZM258.32 62.551L258.316 60.551L260.323 60.5477L260.32 62.5544L258.32 62.551ZM258.319 62.5871L256.319 62.5872V62.5871H258.319ZM268.979 80.7424L269.955 82.4881L268.979 83.0337L268.003 82.4881L268.979 80.7424ZM279.639 62.5871H281.639V62.5872L279.639 62.5871ZM279.639 62.551L277.639 62.5544L277.635 60.5541L279.636 60.551L279.639 62.551ZM297.761 51.8918L299.507 50.9159L300.052 51.8918L299.507 52.8677L297.761 51.8918ZM279.631 41.2317L279.629 43.2317L277.681 43.2293L277.632 41.2819L279.631 41.2317ZM268.979 23.6076L269.955 25.3534C264.333 28.4957 260.5 34.4355 260.328 41.282L258.328 41.2317L256.329 41.1814C256.538 32.8692 261.195 25.6673 268.003 21.8619L268.979 23.6076ZM258.328 41.2317L258.324 43.2317C258.312 43.2316 258.306 43.2317 258.285 43.2317L258.285 41.2317L258.285 39.2317C258.294 39.2317 258.316 39.2316 258.332 39.2317L258.328 41.2317ZM258.285 41.2317V43.2317C251.236 43.2317 245.091 47.1146 241.875 52.8677L240.129 51.8918L238.383 50.9159C242.277 43.9501 249.728 39.2317 258.285 39.2317V41.2317ZM240.129 51.8918L241.875 50.9159C245.091 56.669 251.236 60.552 258.285 60.552V62.552V64.552C249.728 64.552 242.277 59.8336 238.383 52.8677L240.129 51.8918ZM258.285 62.552L258.285 60.552C258.261 60.552 258.241 60.5525 258.231 60.5528C258.225 60.553 258.221 60.5532 258.219 60.5532C258.217 60.5533 258.216 60.5534 258.218 60.5533C258.218 60.5533 258.222 60.5531 258.227 60.5529C258.231 60.5527 258.238 60.5525 258.246 60.5522C258.262 60.5517 258.287 60.551 258.316 60.551L258.32 62.551L258.323 64.551C258.347 64.551 258.366 64.5504 258.376 64.5501C258.381 64.5499 258.385 64.5498 258.387 64.5497C258.388 64.5497 258.389 64.5496 258.387 64.5497C258.386 64.5497 258.382 64.5499 258.377 64.5501C258.372 64.5503 258.365 64.5506 258.357 64.5508C258.341 64.5513 258.316 64.552 258.285 64.552L258.285 62.552ZM258.32 62.551L260.32 62.5544C260.319 62.5828 260.319 62.6063 260.318 62.6214C260.318 62.6291 260.318 62.6356 260.318 62.6401C260.318 62.6442 260.317 62.6481 260.317 62.649C260.317 62.6508 260.317 62.6498 260.317 62.6483C260.318 62.6465 260.318 62.6428 260.318 62.6378C260.318 62.6281 260.319 62.6101 260.319 62.5871H258.319H256.319C256.319 62.5581 256.319 62.5341 256.32 62.5184C256.32 62.5104 256.32 62.5036 256.32 62.4989C256.32 62.4944 256.321 62.4904 256.321 62.4891C256.321 62.487 256.321 62.4879 256.321 62.489C256.321 62.4904 256.32 62.4939 256.32 62.4986C256.32 62.5077 256.32 62.5252 256.32 62.5476L258.32 62.551ZM258.319 62.5871L260.319 62.5871C260.319 69.6363 264.202 75.7806 269.955 78.9967L268.979 80.7424L268.003 82.4881C261.037 78.5942 256.319 71.144 256.319 62.5872L258.319 62.5871ZM268.979 80.7424L268.003 78.9967C273.756 75.7807 277.639 69.6365 277.639 62.5871L279.639 62.5871L281.639 62.5872C281.639 71.1441 276.92 78.5943 269.955 82.4881L268.979 80.7424ZM279.639 62.5871H277.639C277.639 62.5704 277.639 62.5644 277.639 62.5544L279.639 62.551L281.639 62.5476C281.639 62.5616 281.639 62.5799 281.639 62.5871H279.639ZM279.639 62.551L279.636 60.551C286.673 60.54 292.804 56.6607 296.015 50.9159L297.761 51.8918L299.507 52.8677C295.618 59.8236 288.184 64.5377 279.642 64.551L279.639 62.551ZM297.761 51.8918L296.015 52.8677C292.803 47.1209 286.668 43.2401 279.629 43.2317L279.631 41.2317L279.633 39.2317C288.179 39.2419 295.617 43.9579 299.507 50.9159L297.761 51.8918ZM279.631 41.2317L277.632 41.2819C277.459 34.4357 273.625 28.4959 268.003 25.3534L268.979 23.6076L269.955 21.8619C276.762 25.667 281.421 32.8687 281.63 41.1814L279.631 41.2317Z" fill="#FDFAEB" mask="url(#path-21-inside-5_3067_3835)"/>
<path d="M266.233 57.4653C264.857 57.4464 263.512 58.1515 262.775 59.4279C262.038 60.7043 262.1 62.2219 262.805 63.404C264.18 63.4227 265.525 62.7173 266.262 61.441C266.999 60.1648 266.937 58.6474 266.233 57.4653ZM278.303 55.1627C277.001 54.4108 275.452 54.4745 274.245 55.1934C274.226 56.5977 274.946 57.9715 276.249 58.7237C277.551 59.4755 279.1 59.4117 280.307 58.6929C280.326 57.2885 279.606 55.9148 278.303 55.1627ZM261.948 45.8471C260.715 45.1356 259.25 45.1957 258.109 45.8757C258.09 47.2042 258.771 48.5032 260.003 49.2148C261.236 49.9261 262.701 49.8652 263.842 49.1849C263.86 47.857 263.179 46.5584 261.948 45.8471ZM275.497 41.4202C274.119 41.401 272.772 42.1075 272.034 43.3855C271.296 44.6634 271.359 46.183 272.064 47.3665C273.441 47.3856 274.789 46.6792 275.527 45.4012C276.265 44.1234 276.202 42.6036 275.497 41.4202Z" fill="#F3EED1"/>
<path d="M272.069 57.4497C271.364 58.6319 271.302 60.1493 272.039 61.4259C272.776 62.7027 274.122 63.4082 275.499 63.3888C276.202 62.2068 276.264 60.689 275.527 59.4131C274.791 58.1368 273.445 57.431 272.069 57.4497ZM276.11 45.8452C274.807 46.5976 274.087 47.9709 274.106 49.3755C275.313 50.0941 276.861 50.1572 278.164 49.4054C279.467 48.653 280.187 47.2791 280.167 45.8743C278.96 45.1561 277.412 45.0934 276.11 45.8452ZM259.863 55.3538C258.631 56.0653 257.949 57.364 257.967 58.6925C259.108 59.3731 260.575 59.4332 261.807 58.7215C263.04 58.0098 263.72 56.7102 263.702 55.3815C262.56 54.7017 261.095 54.6423 259.863 55.3538ZM262.806 41.4054C262.1 42.589 262.038 44.1084 262.775 45.3864C263.514 46.6647 264.861 47.3699 266.239 47.3504C266.944 46.167 267.005 44.648 266.267 43.3703C265.53 42.0924 264.183 41.3865 262.806 41.4054Z" fill="#F3EED1"/>
<mask id="path-25-inside-6_3067_3835" fill="white">
<path d="M268.956 43.7067C267.063 44.7646 265.769 46.7649 265.711 49.0729C265.707 49.0729 265.703 49.0729 265.699 49.0729C263.323 49.0729 261.253 50.3828 260.17 52.319C261.253 54.2555 263.323 55.5661 265.699 55.5661C265.702 55.5661 265.706 55.5651 265.709 55.5651C265.709 55.5687 265.708 55.5723 265.708 55.5759C265.708 57.952 267.019 60.0205 268.956 61.1032C270.892 60.0205 272.202 57.9518 272.202 55.5759C272.202 55.5723 272.202 55.5687 272.202 55.5651C274.573 55.5613 276.637 54.2524 277.718 52.319C276.637 50.3852 274.572 49.076 272.2 49.0729C272.142 46.765 270.848 44.7647 268.956 43.7067Z"/>
</mask>
<path d="M268.956 43.7067C267.063 44.7646 265.769 46.7649 265.711 49.0729C265.707 49.0729 265.703 49.0729 265.699 49.0729C263.323 49.0729 261.253 50.3828 260.17 52.319C261.253 54.2555 263.323 55.5661 265.699 55.5661C265.702 55.5661 265.706 55.5651 265.709 55.5651C265.709 55.5687 265.708 55.5723 265.708 55.5759C265.708 57.952 267.019 60.0205 268.956 61.1032C270.892 60.0205 272.202 57.9518 272.202 55.5759C272.202 55.5723 272.202 55.5687 272.202 55.5651C274.573 55.5613 276.637 54.2524 277.718 52.319C276.637 50.3852 274.572 49.076 272.2 49.0729C272.142 46.765 270.848 44.7647 268.956 43.7067Z" fill="#EAEBD4"/>
<path d="M268.956 43.7067L268.224 42.3974L268.956 41.9882L269.688 42.3975L268.956 43.7067ZM265.711 49.0729L267.211 49.1107L267.174 50.5759L265.708 50.5729L265.711 49.0729ZM265.699 49.0729V47.5729H265.699L265.699 49.0729ZM260.17 52.319L258.861 53.051L258.452 52.319L258.861 51.5869L260.17 52.319ZM265.699 55.5661L265.699 57.0661H265.699V55.5661ZM265.709 55.5651L265.707 54.0651L267.212 54.0625L267.209 55.5676L265.709 55.5651ZM265.708 55.5759H264.208V55.5758L265.708 55.5759ZM268.956 61.1032L269.688 62.4124L268.956 62.8218L268.224 62.4124L268.956 61.1032ZM272.202 55.5759L273.702 55.5758V55.5759H272.202ZM272.202 55.5651L270.702 55.5677L270.699 54.0675L272.199 54.0651L272.202 55.5651ZM277.718 52.319L279.027 51.5869L279.437 52.319L279.027 53.0511L277.718 52.319ZM272.2 49.0729L272.198 50.5729L270.737 50.571L270.7 49.1107L272.2 49.0729ZM268.956 43.7067L269.688 45.016C268.239 45.8256 267.255 47.3529 267.211 49.1107L265.711 49.0729L264.212 49.0352C264.284 46.1769 265.887 43.7037 268.224 42.3974L268.956 43.7067ZM265.711 49.0729L265.708 50.5729C265.706 50.5729 265.708 50.5729 265.699 50.5729L265.699 49.0729L265.699 47.5729C265.7 47.5729 265.701 47.5729 265.704 47.5729C265.707 47.5729 265.71 47.5729 265.714 47.5729L265.711 49.0729ZM265.699 49.0729V50.5729C263.888 50.5729 262.308 51.5693 261.48 53.0511L260.17 52.319L258.861 51.5869C260.198 49.1963 262.757 47.5729 265.699 47.5729V49.0729ZM260.17 52.319L261.48 51.587C262.308 53.0693 263.888 54.0661 265.699 54.0661V55.5661V57.0661C262.757 57.0661 260.198 55.4416 258.861 53.051L260.17 52.319ZM265.699 55.5661L265.699 54.0661C265.665 54.0661 265.636 54.0672 265.611 54.0687C265.587 54.0702 265.566 54.072 265.55 54.0737C265.534 54.0753 265.521 54.0768 265.513 54.0778C265.51 54.0783 265.506 54.0787 265.505 54.0789C265.503 54.0792 265.502 54.0793 265.502 54.0793C265.502 54.0793 265.503 54.0792 265.503 54.0791C265.504 54.0791 265.505 54.0789 265.506 54.0788C265.508 54.0785 265.511 54.0781 265.515 54.0775C265.524 54.0765 265.537 54.0748 265.554 54.0731C265.57 54.0714 265.592 54.0694 265.617 54.0679C265.643 54.0664 265.673 54.0652 265.707 54.0651L265.709 55.5651L265.712 57.0651C265.745 57.0651 265.774 57.0639 265.799 57.0624C265.823 57.0609 265.844 57.0591 265.86 57.0574C265.876 57.0558 265.888 57.0543 265.895 57.0534C265.899 57.0529 265.902 57.0525 265.904 57.0523C265.905 57.0521 265.907 57.0519 265.906 57.0519C265.906 57.052 265.904 57.0522 265.902 57.0525C265.9 57.0528 265.896 57.0532 265.892 57.0538C265.884 57.0549 265.87 57.0565 265.853 57.0582C265.836 57.06 265.814 57.0619 265.789 57.0634C265.763 57.0649 265.733 57.0661 265.699 57.0661L265.699 55.5661ZM265.709 55.5651L267.209 55.5676C267.209 55.6016 267.208 55.6318 267.207 55.6572C267.205 55.6825 267.203 55.7042 267.201 55.7209C267.2 55.7375 267.198 55.751 267.197 55.7592C267.197 55.7634 267.196 55.7668 267.196 55.769C267.196 55.77 267.196 55.771 267.195 55.7715C267.195 55.7721 267.195 55.7725 267.195 55.7726C267.195 55.773 267.195 55.7716 267.196 55.77C267.196 55.7682 267.196 55.7651 267.197 55.7612C267.198 55.7537 267.199 55.7409 267.201 55.725C267.203 55.7089 267.204 55.688 267.206 55.6633C267.207 55.6386 267.208 55.6092 267.208 55.5759L265.708 55.5759L264.208 55.5758C264.208 55.5417 264.21 55.5113 264.211 55.4857C264.213 55.4602 264.215 55.4383 264.216 55.4214C264.218 55.4045 264.22 55.3909 264.221 55.3824C264.221 55.3781 264.222 55.3746 264.222 55.3723C264.222 55.3703 264.223 55.3685 264.223 55.3684C264.223 55.3679 264.223 55.3692 264.222 55.3707C264.222 55.3724 264.222 55.3754 264.221 55.3791C264.22 55.3864 264.219 55.399 264.217 55.4147C264.216 55.4306 264.214 55.4513 264.212 55.4758C264.211 55.5003 264.21 55.5295 264.209 55.5626L265.709 55.5651ZM265.708 55.5759H267.208C267.208 57.3858 268.205 58.9651 269.688 59.794L268.956 61.1032L268.224 62.4124C265.833 61.076 264.208 58.5182 264.208 55.5759H265.708ZM268.956 61.1032L268.223 59.794C269.705 58.9652 270.702 57.386 270.702 55.5759H272.202H273.702C273.702 58.5176 272.078 61.0757 269.688 62.4124L268.956 61.1032ZM272.202 55.5759L270.702 55.5759C270.702 55.5685 270.702 55.5699 270.702 55.5677L272.202 55.5651L273.702 55.5626C273.702 55.566 273.702 55.569 273.702 55.5712C273.702 55.5738 273.702 55.5745 273.702 55.5758L272.202 55.5759ZM272.202 55.5651L272.199 54.0651C274.006 54.0622 275.581 53.067 276.409 51.5869L277.718 52.319L279.027 53.0511C277.693 55.4379 275.141 57.0604 272.204 57.0651L272.202 55.5651ZM277.718 52.319L276.409 53.0512C275.581 51.5708 274.005 50.5753 272.198 50.5729L272.2 49.0729L272.202 47.5729C275.139 47.5767 277.692 49.1996 279.027 51.5869L277.718 52.319ZM272.2 49.0729L270.7 49.1107C270.656 47.353 269.672 45.8256 268.224 45.016L268.956 43.7067L269.688 42.3975C272.024 43.7037 273.627 46.177 273.699 49.0352L272.2 49.0729Z" fill="#FDFAEB" mask="url(#path-25-inside-6_3067_3835)"/>
<path d="M287.08 40.988C291.43 40.988 296.504 47.1502 298.498 50.2313C298.498 43.2716 291.973 35.3695 288.711 32.8321C289.255 36.0944 288.251 39.7193 287.08 40.988Z" fill="#BEDED1"/>
<path d="M287.623 63.825C291.973 63.825 297.048 57.6627 299.042 54.5816C299.042 61.5413 292.517 69.4435 289.255 71.9809C289.798 68.7185 288.795 65.0937 287.623 63.825Z" fill="#BEDED1"/>
<path d="M280.011 34.463C282.621 31.8532 287.261 32.8319 289.255 33.3756C287.08 31.2007 282.73 29.0258 279.468 28.4821C280.555 19.2388 274.03 20.3262 268.593 22.5012C275.118 24.2411 278.924 31.2007 280.011 34.463Z" fill="#ECDEBD"/>
<path d="M280.011 70.8936C282.621 73.5035 287.261 72.5248 289.255 71.981C287.08 74.156 282.73 76.3309 279.468 76.8745C280.555 86.1179 274.03 85.0305 268.593 82.8555C275.118 81.1156 278.924 74.1559 280.011 70.8936Z" fill="#ECDEBD"/>
</g>
<defs>
<filter id="filter0_d_3067_3835" x="29.9054" y="3.13232" width="264.23" height="106.548" filterUnits="userSpaceOnUse" color-interpolation-filters="sRGB">
<feFlood flood-opacity="0" result="BackgroundImageFix"/>
<feColorMatrix in="SourceAlpha" type="matrix" values="0 0 0 0 0 0 0 0 0 0 0 0 0 0 0 0 0 0 127 0" result="hardAlpha"/>
<feOffset dy="4"/>
<feGaussianBlur stdDeviation="12.5"/>
<feComposite in2="hardAlpha" operator="out"/>
<feColorMatrix type="matrix" values="0 0 0 0 0.660156 0 0 0 0 0.617286 0 0 0 0 0.499394 0 0 0 0.25 0"/>
<feBlend mode="normal" in2="BackgroundImageFix" result="effect1_dropShadow_3067_3835"/>
<feBlend mode="normal" in="SourceGraphic" in2="effect1_dropShadow_3067_3835" result="shape"/>
</filter>
<filter id="filter1_d_3067_3835" x="0" y="0" width="108.913" height="113.357" filterUnits="userSpaceOnUse" color-interpolation-filters="sRGB">
<feFlood flood-opacity="0" result="BackgroundImageFix"/>
<feColorMatrix in="SourceAlpha" type="matrix" values="0 0 0 0 0 0 0 0 0 0 0 0 0 0 0 0 0 0 127 0" result="hardAlpha"/>
<feOffset dy="4"/>
<feGaussianBlur stdDeviation="12.5"/>
<feComposite in2="hardAlpha" operator="out"/>
<feColorMatrix type="matrix" values="0 0 0 0 0.660156 0 0 0 0 0.617286 0 0 0 0 0.499394 0 0 0 0.25 0"/>
<feBlend mode="normal" in2="BackgroundImageFix" result="effect1_dropShadow_3067_3835"/>
<feBlend mode="normal" in="SourceGraphic" in2="effect1_dropShadow_3067_3835" result="shape"/>
</filter>
<filter id="filter2_d_3067_3835" x="215.129" y="0" width="108.913" height="113.357" filterUnits="userSpaceOnUse" color-interpolation-filters="sRGB">
<feFlood flood-opacity="0" result="BackgroundImageFix"/>
<feColorMatrix in="SourceAlpha" type="matrix" values="0 0 0 0 0 0 0 0 0 0 0 0 0 0 0 0 0 0 127 0" result="hardAlpha"/>
<feOffset dy="4"/>
<feGaussianBlur stdDeviation="12.5"/>
<feComposite in2="hardAlpha" operator="out"/>
<feColorMatrix type="matrix" values="0 0 0 0 0.660156 0 0 0 0 0.617286 0 0 0 0 0.499394 0 0 0 0.25 0"/>
<feBlend mode="normal" in2="BackgroundImageFix" result="effect1_dropShadow_3067_3835"/>
<feBlend mode="normal" in="SourceGraphic" in2="effect1_dropShadow_3067_3835" result="shape"/>
</filter>
</defs>
</svg>
